<svg width="250" height="250" viewBox="0 0 120 120" xmlns="http://www.w3.org/2000/svg">
  <defs>
    <radialGradient id="sunGradient" cx="50%" cy="50%" r="50%">
      <stop offset="0%" stop-color="white" />
      <stop offset="100%" stop-color="gold" />
    </radialGradient>
  </defs>

  <!-- background stars -->
  <g fill="white">
    <circle cx="5" cy="5" r="0.4" />
    <circle cx="15" cy="20" r="0.4" />
    <circle cx="25" cy="80" r="0.4" />
    <circle cx="35" cy="60" r="0.4" />
    <circle cx="45" cy="10" r="0.4" />
    <circle cx="55" cy="90" r="0.4" />
    <circle cx="65" cy="30" r="0.4" />
    <circle cx="75" cy="50" r="0.4" />
    <circle cx="85" cy="15" r="0.4" />
    <circle cx="95" cy="70" r="0.4" />
    <circle cx="105" cy="40" r="0.4" />
    <circle cx="115" cy="95" r="0.4" />
    <!-- additional random stars to fill space -->
    <circle cx="10" cy="100" r="0.4" />
    <circle cx="20" cy="45" r="0.4" />
    <circle cx="30" cy="25" r="0.4" />
    <circle cx="40" cy="85" r="0.4" />
    <circle cx="50" cy="55" r="0.4" />
    <circle cx="60" cy="15" r="0.4" />
    <circle cx="70" cy="95" r="0.4" />
    <circle cx="80" cy="35" r="0.4" />
    <circle cx="90" cy="5" r="0.4" />
    <circle cx="100" cy="85" r="0.4" />
    <circle cx="110" cy="25" r="0.4" />
    <circle cx="15" cy="60" r="0.4" />
    <circle cx="25" cy="110" r="0.4" />
    <circle cx="35" cy="40" r="0.4" />
    <circle cx="45" cy="105" r="0.4" />
    <circle cx="55" cy="35" r="0.4" />
    <circle cx="65" cy="75" r="0.4" />
    <circle cx="75" cy="20" r="0.4" />
    <circle cx="85" cy="100" r="0.4" />
    <circle cx="95" cy="55" r="0.4" />
    <circle cx="105" cy="10" r="0.4" />
  </g>

  <!-- central star -->
  <circle cx="60" cy="60" r="6" fill="url(#sunGradient)" />

  <!-- planets -->
  <g>
    <circle cx="60" cy="5" r="1" fill="gray" />
    <animateTransform attributeName="transform" attributeType="XML" type="rotate" from="0 60 60" to="360 60 60" dur="8s" repeatCount="indefinite" />
  </g>
  <g>
    <circle cx="60" cy="15" r="2" fill="tan" />
    <animateTransform attributeName="transform" attributeType="XML" type="rotate" from="360 60 60" to="0 60 60" dur="12s" repeatCount="indefinite" />
  </g>
  <g>
    <circle cx="60" cy="25" r="2.2" fill="deepskyblue" />
    <animateTransform attributeName="transform" attributeType="XML" type="rotate" from="0 60 60" to="360 60 60" dur="16s" repeatCount="indefinite" />
  </g>
  <g>
    <circle cx="60" cy="35" r="1.8" fill="orange" />
    <animateTransform attributeName="transform" attributeType="XML" type="rotate" from="0 60 60" to="360 60 60" dur="20s" repeatCount="indefinite" />
  </g>
  <g>
    <circle cx="60" cy="45" r="4" fill="peru" />
    <animateTransform attributeName="transform" attributeType="XML" type="rotate" from="360 60 60" to="0 60 60" dur="30s" repeatCount="indefinite" />
  </g>

  <!-- shooting star appears first and every minute -->
  <g opacity="0">
    <line x1="0" y1="0" x2="4" y2="1" stroke="white" stroke-width="0.5" />
    <circle cx="4" cy="1" r="0.7" fill="white" />
    <animate attributeName="opacity" values="1;0" dur="2s" begin="0s;60s" repeatCount="indefinite" />
    <animateTransform attributeName="transform" type="translate" from="-20 -10" to="140 130" dur="2s" begin="0s;60s" repeatCount="indefinite" />
  </g>

  <!-- rocket appears after 20s and then every minute offset -->
  <g opacity="0">
    <polygon points="0,0 2,1 0,2" fill="silver" />
    <rect x="-0.3" y="0.8" width="0.6" height="0.6" fill="orange" />
    <animate attributeName="opacity" values="1;0" dur="3s" begin="20s;80s" repeatCount="indefinite" />
    <animateTransform attributeName="transform" type="translate" from="140 120" to="-20 -10" dur="3s" begin="20s;80s" repeatCount="indefinite" />
  </g>
</svg>
