<svg width="400" height="200" viewBox="0 0 200 100" xmlns="http://www.w3.org/2000/svg">
  <defs>
    <radialGradient id="sun" cx="50%" cy="50%" r="50%">
      <stop offset="0%" stop-color="rgba(255,215,0,0.4)" />
      <stop offset="100%" stop-color="rgba(255,140,0,0)" />
    </radialGradient>
    
    <radialGradient id="planet" cx="30%" cy="30%" r="70%">
      <stop offset="0%" stop-color="rgba(100,149,237,0.6)" />
      <stop offset="100%" stop-color="rgba(25,25,112,0.2)" />
    </radialGradient>
    
    <radialGradient id="space" cx="50%" cy="50%" r="100%">
      <stop offset="0%" stop-color="rgba(25,25,112,0.03)" />
      <stop offset="100%" stop-color="rgba(0,0,0,0)" />
    </radialGradient>
    
    <radialGradient id="planet2" cx="40%" cy="40%" r="60%">
      <stop offset="0%" stop-color="rgba(255,69,0,0.5)" />
      <stop offset="100%" stop-color="rgba(139,0,0,0.2)" />
    </radialGradient>
    
    <radialGradient id="planet3" cx="35%" cy="35%" r="65%">
      <stop offset="0%" stop-color="rgba(50,205,50,0.4)" />
      <stop offset="100%" stop-color="rgba(0,100,0,0.2)" />
    </radialGradient>
    
    <radialGradient id="planet4" cx="25%" cy="25%" r="75%">
      <stop offset="0%" stop-color="rgba(255,20,147,0.3)" />
      <stop offset="100%" stop-color="rgba(139,0,139,0.1)" />
    </radialGradient>
  </defs>
  
  <!-- Background space -->
  <rect width="200" height="100" fill="url(#space)" opacity="0.8"/>
  
  <!-- Far deep space stars (layer 1 - most distant) -->
  <g fill="white" opacity="0.08">
    <circle cx="12" cy="8" r="0.03"/><circle cx="28" cy="12" r="0.025"/><circle cx="45" cy="7" r="0.04"/><circle cx="62" cy="11" r="0.03"/><circle cx="78" cy="6" r="0.035"/><circle cx="94" cy="9" r="0.025"/><circle cx="111" cy="13" r="0.04"/><circle cx="127" cy="8" r="0.03"/><circle cx="143" cy="11" r="0.025"/><circle cx="159" cy="7" r="0.035"/><circle cx="175" cy="12" r="0.03"/><circle cx="191" cy="9" r="0.04"/>
    <circle cx="8" cy="23" r="0.025"/><circle cx="24" cy="27" r="0.04"/><circle cx="41" cy="22" r="0.03"/><circle cx="57" cy="26" r="0.025"/><circle cx="73" cy="21" r="0.035"/><circle cx="89" cy="25" r="0.03"/><circle cx="106" cy="28" r="0.025"/><circle cx="122" cy="23" r="0.04"/><circle cx="138" cy="27" r="0.03"/><circle cx="154" cy="22" r="0.025"/><circle cx="171" cy="26" r="0.035"/><circle cx="187" cy="24" r="0.03"/>
    <circle cx="15" cy="38" r="0.04"/><circle cx="31" cy="42" r="0.025"/><circle cx="48" cy="37" r="0.03"/><circle cx="64" cy="41" r="0.035"/><circle cx="80" cy="36" r="0.025"/><circle cx="96" cy="40" r="0.04"/><circle cx="113" cy="43" r="0.03"/><circle cx="129" cy="38" r="0.025"/><circle cx="145" cy="42" r="0.035"/><circle cx="161" cy="37" r="0.03"/><circle cx="178" cy="41" r="0.025"/><circle cx="194" cy="39" r="0.04"/>
    <circle cx="9" cy="53" r="0.03"/><circle cx="25" cy="57" r="0.035"/><circle cx="42" cy="52" r="0.025"/><circle cx="58" cy="56" r="0.04"/><circle cx="74" cy="51" r="0.03"/><circle cx="91" cy="55" r="0.025"/><circle cx="107" cy="58" r="0.035"/><circle cx="123" cy="53" r="0.04"/><circle cx="140" cy="57" r="0.03"/><circle cx="156" cy="52" r="0.025"/><circle cx="172" cy="56" r="0.035"/><circle cx="188" cy="54" r="0.03"/>
    <circle cx="18" cy="68" r="0.025"/><circle cx="34" cy="72" r="0.04"/><circle cx="51" cy="67" r="0.035"/><circle cx="67" cy="71" r="0.025"/><circle cx="83" cy="66" r="0.03"/><circle cx="100" cy="70" r="0.04"/><circle cx="116" cy="73" r="0.025"/><circle cx="132" cy="68" r="0.035"/><circle cx="149" cy="72" r="0.03"/><circle cx="165" cy="67" r="0.025"/><circle cx="181" cy="71" r="0.04"/><circle cx="197" cy="69" r="0.035"/>
    <circle cx="6" cy="83" r="0.04"/><circle cx="22" cy="87" r="0.03"/><circle cx="39" cy="82" r="0.025"/><circle cx="55" cy="86" r="0.035"/><circle cx="71" cy="81" r="0.04"/><circle cx="87" cy="85" r="0.025"/><circle cx="104" cy="88" r="0.03"/><circle cx="120" cy="83" r="0.035"/><circle cx="136" cy="87" r="0.025"/><circle cx="152" cy="82" r="0.04"/><circle cx="169" cy="86" r="0.03"/><circle cx="185" cy="84" r="0.025"/>
    <circle cx="13" cy="98" r="0.035"/><circle cx="29" cy="94" r="0.025"/><circle cx="46" cy="97" r="0.03"/><circle cx="62" cy="93" r="0.04"/><circle cx="78" cy="96" r="0.025"/><circle cx="95" cy="98" r="0.035"/><circle cx="111" cy="94" r="0.03"/><circle cx="127" cy="97" r="0.025"/><circle cx="144" cy="93" r="0.04"/><circle cx="160" cy="96" r="0.035"/><circle cx="176" cy="98" r="0.025"/><circle cx="192" cy="95" r="0.03"/>
  </g>
  
  <!-- Deep space stars (layer 2) -->
  <g fill="white" opacity="0.12">
    <circle cx="14" cy="14" r="0.04"/><circle cx="33" cy="18" r="0.05"/><circle cx="52" cy="13" r="0.045"/><circle cx="71" cy="17" r="0.04"/><circle cx="90" cy="12" r="0.055"/><circle cx="109" cy="16" r="0.045"/><circle cx="128" cy="19" r="0.04"/><circle cx="147" cy="14" r="0.05"/><circle cx="166" cy="18" r="0.045"/><circle cx="185" cy="13" r="0.055"/>
    <circle cx="7" cy="29" r="0.045"/><circle cx="26" cy="33" r="0.04"/><circle cx="45" cy="28" r="0.055"/><circle cx="64" cy="32" r="0.045"/><circle cx="83" cy="27" r="0.05"/><circle cx="102" cy="31" r="0.04"/><circle cx="121" cy="34" r="0.045"/><circle cx="140" cy="29" r="0.055"/><circle cx="159" cy="33" r="0.05"/><circle cx="178" cy="28" r="0.045"/><circle cx="197" cy="32" r="0.04"/>
    <circle cx="19" cy="44" r="0.05"/><circle cx="38" cy="48" r="0.045"/><circle cx="57" cy="43" r="0.04"/><circle cx="76" cy="47" r="0.055"/><circle cx="95" cy="42" r="0.05"/><circle cx="114" cy="46" r="0.045"/><circle cx="133" cy="49" r="0.04"/><circle cx="152" cy="44" r="0.055"/><circle cx="171" cy="48" r="0.05"/><circle cx="190" cy="43" r="0.045"/>
    <circle cx="11" cy="59" r="0.055"/><circle cx="30" cy="63" r="0.045"/><circle cx="49" cy="58" r="0.05"/><circle cx="68" cy="62" r="0.04"/><circle cx="87" cy="57" r="0.045"/><circle cx="106" cy="61" r="0.055"/><circle cx="125" cy="64" r="0.05"/><circle cx="144" cy="59" r="0.045"/><circle cx="163" cy="63" r="0.04"/><circle cx="182" cy="58" r="0.055"/>
    <circle cx="23" cy="74" r="0.04"/><circle cx="42" cy="78" r="0.055"/><circle cx="61" cy="73" r="0.045"/><circle cx="80" cy="77" r="0.05"/><circle cx="99" cy="72" r="0.04"/><circle cx="118" cy="76" r="0.045"/><circle cx="137" cy="79" r="0.055"/><circle cx="156" cy="74" r="0.05"/><circle cx="175" cy="78" r="0.045"/><circle cx="194" cy="73" r="0.04"/>
    <circle cx="4" cy="89" r="0.045"/><circle cx="35" cy="93" r="0.05"/><circle cx="54" cy="88" r="0.055"/><circle cx="73" cy="92" r="0.045"/><circle cx="92" cy="87" r="0.04"/><circle cx="111" cy="91" r="0.05"/><circle cx="130" cy="94" r="0.045"/><circle cx="149" cy="89" r="0.055"/><circle cx="168" cy="93" r="0.05"/><circle cx="187" cy="88" r="0.045"/>
  </g>
  
  <!-- Mid-distance stars (layer 3) -->
  <g fill="white" opacity="0.18">
    <circle cx="16" cy="19" r="0.06"/><circle cx="37" cy="24" r="0.07"/><circle cx="58" cy="18" r="0.065"/><circle cx="79" cy="23" r="0.06"/><circle cx="100" cy="17" r="0.075"/><circle cx="121" cy="22" r="0.065"/><circle cx="142" cy="25" r="0.06"/><circle cx="163" cy="19" r="0.07"/><circle cx="184" cy="24" r="0.065"/>
    <circle cx="9" cy="34" r="0.065"/><circle cx="30" cy="39" r="0.06"/><circle cx="51" cy="33" r="0.075"/><circle cx="72" cy="38" r="0.065"/><circle cx="93" cy="32" r="0.07"/><circle cx="114" cy="37" r="0.06"/><circle cx="135" cy="40" r="0.065"/><circle cx="156" cy="34" r="0.075"/><circle cx="177" cy="39" r="0.07"/><circle cx="198" cy="33" r="0.065"/>
    <circle cx="21" cy="49" r="0.07"/><circle cx="42" cy="54" r="0.065"/><circle cx="63" cy="48" r="0.06"/><circle cx="84" cy="53" r="0.075"/><circle cx="105" cy="47" r="0.07"/><circle cx="126" cy="52" r="0.065"/><circle cx="147" cy="55" r="0.06"/><circle cx="168" cy="49" r="0.075"/><circle cx="189" cy="54" r="0.07"/>
    <circle cx="13" cy="64" r="0.075"/><circle cx="34" cy="69" r="0.065"/><circle cx="55" cy="63" r="0.07"/><circle cx="76" cy="68" r="0.06"/><circle cx="97" cy="62" r="0.065"/><circle cx="118" cy="67" r="0.075"/><circle cx="139" cy="70" r="0.07"/><circle cx="160" cy="64" r="0.065"/><circle cx="181" cy="69" r="0.06"/>
    <circle cx="25" cy="79" r="0.06"/><circle cx="46" cy="84" r="0.075"/><circle cx="67" cy="78" r="0.065"/><circle cx="88" cy="83" r="0.07"/><circle cx="109" cy="77" r="0.06"/><circle cx="130" cy="82" r="0.065"/><circle cx="151" cy="85" r="0.075"/><circle cx="172" cy="79" r="0.07"/><circle cx="193" cy="84" r="0.065"/>
    <circle cx="17" cy="94" r="0.065"/><circle cx="38" cy="99" r="0.07"/><circle cx="59" cy="93" r="0.075"/><circle cx="80" cy="98" r="0.065"/><circle cx="101" cy="92" r="0.06"/><circle cx="122" cy="97" r="0.07"/><circle cx="143" cy="94" r="0.065"/><circle cx="164" cy="99" r="0.075"/><circle cx="185" cy="93" r="0.07"/>
  </g>
  
  <!-- Near stars (layer 4) -->
  <g fill="white" opacity="0.25">
    <circle cx="25" cy="20" r="0.15"/><circle cx="70" cy="15" r="0.1"/><circle cx="150" cy="25" r="0.12"/><circle cx="180" cy="35" r="0.08"/><circle cx="40" cy="75" r="0.1"/><circle cx="120" cy="80" r="0.15"/><circle cx="175" cy="85" r="0.1"/>
    <circle cx="15" cy="45" r="0.08"/><circle cx="55" cy="35" r="0.12"/><circle cx="85" cy="25" r="0.09"/><circle cx="160" cy="55" r="0.11"/><circle cx="45" cy="90" r="0.08"/><circle cx="185" cy="65" r="0.1"/>
    <circle cx="35" cy="30" r="0.06"/><circle cx="95" cy="85" r="0.07"/><circle cx="165" cy="15" r="0.05"/><circle cx="10" cy="80" r="0.06"/><circle cx="190" cy="45" r="0.08"/>
  </g>
  
  <!-- Bright foreground stars (layer 5) -->
  <g fill="white" opacity="0.4">
    <circle cx="18" cy="12" r="0.2"/><circle cx="82" cy="8" r="0.18"/><circle cx="165" cy="22" r="0.22"/><circle cx="32" cy="88" r="0.19"/><circle cx="178" cy="92" r="0.21"/>
    <circle cx="144" cy="6" r="0.17"/><circle cx="7" cy="66" r="0.2"/><circle cx="193" cy="78" r="0.18"/><circle cx="66" cy="95" r="0.19"/><circle cx="112" cy="3" r="0.16"/>
  </g>
  
  <!-- Central sun -->
  <circle cx="100" cy="50" r="8" fill="url(#sun)" opacity="0.6">
    <animate attributeName="opacity" values="0.5;0.7;0.5" dur="60s" repeatCount="indefinite"/>
  </circle>
  
  <!-- Orbital paths -->
  <ellipse cx="100" cy="50" rx="15" ry="6" fill="none" stroke="rgba(255,255,255,0.02)" stroke-width="0.2" stroke-dasharray="1,2" opacity="0.3"/>
  <ellipse cx="100" cy="50" rx="25" ry="10" fill="none" stroke="rgba(255,255,255,0.025)" stroke-width="0.25" stroke-dasharray="1.5,3" opacity="0.35"/>
  <ellipse cx="100" cy="50" rx="40" ry="16" fill="none" stroke="rgba(255,255,255,0.02)" stroke-width="0.3" stroke-dasharray="2,4" opacity="0.3"/>
  <ellipse cx="100" cy="50" rx="55" ry="22" fill="none" stroke="rgba(255,255,255,0.015)" stroke-width="0.25" stroke-dasharray="1,5" opacity="0.25"/>
  <ellipse cx="100" cy="50" rx="75" ry="30" fill="none" stroke="rgba(255,255,255,0.01)" stroke-width="0.2" stroke-dasharray="0.5,6" opacity="0.2"/>
  
  <!-- Mercury-like planet -->
  <g>
    <circle cx="115" cy="50" r="1" fill="url(#planet4)" opacity="0.6"/>
    <animateTransform attributeName="transform" type="rotate" 
                      values="0 100 50; 360 100 50" dur="15s" repeatCount="indefinite"/>
  </g>
  
  <!-- Venus-like planet -->
  <g>
    <circle cx="125" cy="50" r="1.8" fill="url(#planet2)" opacity="0.7"/>
    <animateTransform attributeName="transform" type="rotate" 
                      values="0 100 50; 360 100 50" dur="35s" repeatCount="indefinite"/>
  </g>
  
  <!-- Earth-like planet -->
  <g>
    <circle cx="140" cy="50" r="2.2" fill="url(#planet)" opacity="0.8"/>
    <animateTransform attributeName="transform" type="rotate" 
                      values="0 100 50; 360 100 50" dur="65s" repeatCount="indefinite"/>
  </g>
  
  <!-- Mars-like planet -->
  <g>
    <circle cx="155" cy="50" r="1.6" fill="url(#planet2)" opacity="0.6"/>
    <animateTransform attributeName="transform" type="rotate" 
                      values="0 100 50; 360 100 50" dur="95s" repeatCount="indefinite"/>
  </g>
  
  <!-- Jupiter-like planet -->
  <g>
    <circle cx="175" cy="50" r="3.5" fill="url(#planet3)" opacity="0.7"/>
    <animateTransform attributeName="transform" type="rotate" 
                      values="0 100 50; 360 100 50" dur="180s" repeatCount="indefinite"/>
  </g>
</svg>
