<svg width="300" height="300" viewBox="0 0 120 120" xmlns="http://www.w3.org/2000/svg">
  <defs>
    <radialGradient id="sunGradient" cx="50%" cy="50%" r="50%">
      <stop offset="0%" stop-color="white" />
      <stop offset="100%" stop-color="gold" />
    </radialGradient>
  </defs>

  <!-- background stars -->
  <g fill="white">
    <circle cx="10" cy="10" r="0.4" />
    <circle cx="20" cy="95" r="0.4" />
    <circle cx="80" cy="40" r="0.4" />
    <circle cx="100" cy="70" r="0.4" />
    <circle cx="60" cy="15" r="0.4" />
    <!-- additional random stars -->
    <circle cx="5" cy="85" r="0.4" />
    <circle cx="30" cy="10" r="0.4" />
    <circle cx="50" cy="50" r="0.4" />
    <circle cx="70" cy="100" r="0.4" />
    <circle cx="15" cy="30" r="0.4" />
    <circle cx="110" cy="20" r="0.4" />
    <circle cx="90" cy="90" r="0.4" />
    <circle cx="40" cy="75" r="0.4" />
    <circle cx="75" cy="60" r="0.4" />
    <circle cx="95" cy="50" r="0.4" />
    <circle cx="30" cy="90" r="0.4" />
    <circle cx="60" cy="100" r="0.4" />
    <circle cx="45" cy="20" r="0.4" />
    <circle cx="25" cy="55" r="0.4" />
    <circle cx="85" cy="15" r="0.4" />
  </g>

  <!-- orbit paths -->
  <circle cx="60" cy="60" r="55" fill="none" stroke="lightgray" stroke-width="0.5" stroke-dasharray="1,3" />
  <circle cx="60" cy="60" r="45" fill="none" stroke="lightgray" stroke-width="0.5" stroke-dasharray="1,3" />
  <circle cx="60" cy="60" r="35" fill="none" stroke="lightgray" stroke-width="0.5" stroke-dasharray="1,3" />
  <circle cx="60" cy="60" r="25" fill="none" stroke="lightgray" stroke-width="0.5" stroke-dasharray="1,3" />
  <circle cx="60" cy="60" r="15" fill="none" stroke="lightgray" stroke-width="0.5" stroke-dasharray="1,3" />

  <!-- central star -->
  <circle cx="60" cy="60" r="4" fill="url(#sunGradient)" />

  <!-- planets -->
  <g>
    <circle cx="60" cy="5" r="3" fill="deepskyblue" />
    <animateTransform attributeName="transform" attributeType="XML"
                      type="rotate" from="0 60 60" to="360 60 60"
                      dur="8s" repeatCount="indefinite" />
  </g>

  <g>
    <circle cx="60" cy="15" r="2" fill="limegreen">
      <animate attributeName="r" values="2;2.5;2" dur="2s" repeatCount="indefinite" />
    </circle>
    <animateTransform attributeName="transform" attributeType="XML"
                      type="rotate" from="360 60 60" to="0 60 60"
                      dur="6s" repeatCount="indefinite" />
  </g>

  <g>
    <circle cx="60" cy="25" r="2.5" fill="hotpink" />
    <animateTransform attributeName="transform" attributeType="XML"
                      type="rotate" from="0 60 60" to="360 60 60"
                      dur="12s" repeatCount="indefinite" />
  </g>

  <g>
    <circle cx="60" cy="35" r="2.2" fill="orange" />
    <ellipse cx="60" cy="35" rx="3.5" ry="1" fill="none" stroke="tan" stroke-width="0.5" />
    <animateTransform attributeName="transform" attributeType="XML"
                      type="rotate" from="0 60 60" to="360 60 60"
                      dur="14s" repeatCount="indefinite" />
  </g>

  <g>
    <circle cx="60" cy="45" r="3" fill="purple" />
    <animateTransform attributeName="transform" attributeType="XML"
                      type="rotate" from="360 60 60" to="0 60 60"
                      dur="18s" repeatCount="indefinite" />
  </g>
</svg>
